<?xml version="1.0" encoding="UTF-8" standalone="no"?>
<!DOCTYPE svg PUBLIC "-//W3C//DTD SVG 1.1//EN" "http://www.w3.org/Graphics/SVG/1.1/DTD/svg11.dtd">
<svg version="1.1" xmlns="http://www.w3.org/2000/svg" xmlns:xlink="http://www.w3.org/1999/xlink" preserveAspectRatio="xMidYMid meet" viewBox="0 0 640 640" width="640" height="640"><defs><path d="M-6.44 -3.56L660.23 -3.56L660.23 698.74L-6.44 698.74L-6.44 -3.56Z" id="c7s3H2ggH0"></path><path d="M497.01 249.31C497.01 347.64 416.67 427.47 317.7 427.47C218.74 427.47 138.39 347.64 138.39 249.31C138.39 150.98 218.74 71.15 317.7 71.15C416.67 71.15 497.01 150.98 497.01 249.31Z" id="f1Rr4TdQw1"></path><path d="M611.61 631.49C611.61 719.99 480.94 791.84 320 791.84C159.06 791.84 28.39 719.99 28.39 631.49C28.39 543 159.06 471.15 320 471.15C480.94 471.15 611.61 543 611.61 631.49Z" id="c15UO4x3tq"></path></defs><g><g><g><use xlink:href="#c7s3H2ggH0" opacity="1" fill="#ffffff" fill-opacity="1"></use></g><g><use xlink:href="#f1Rr4TdQw1" opacity="1" fill="#5a57ab" fill-opacity="0"></use><g><use xlink:href="#f1Rr4TdQw1" opacity="1" fill-opacity="0" stroke="#666666" stroke-width="27" stroke-opacity="1"></use></g></g><g><use xlink:href="#c15UO4x3tq" opacity="1" fill="#5ece9f" fill-opacity="0"></use><g><use xlink:href="#c15UO4x3tq" opacity="1" fill-opacity="0" stroke="#666666" stroke-width="27" stroke-opacity="1"></use></g></g></g></g></svg>