<?xml version="1.0" encoding="UTF-8" standalone="no"?>
<!DOCTYPE svg PUBLIC "-//W3C//DTD SVG 1.1//EN" "http://www.w3.org/Graphics/SVG/1.1/DTD/svg11.dtd">
<svg version="1.1" xmlns="http://www.w3.org/2000/svg" xmlns:xlink="http://www.w3.org/1999/xlink" preserveAspectRatio="xMidYMid meet" viewBox="0 0 640 640" width="640" height="640"><defs><path d="M568 362.65C568 499.52 456.87 610.64 320 610.64C183.13 610.64 72 499.52 72 362.65C72 225.78 183.13 114.65 320 114.65C456.87 114.65 568 225.78 568 362.65Z" id="aPDoKITTH"></path><path d="M507.83 372.95L507.37 381.34L506.6 389.65L505.53 397.85L504.17 405.95L502.52 413.93L500.6 421.8L498.4 429.54L495.93 437.14L493.21 444.6L490.22 451.92L486.99 459.08L483.52 466.09L479.81 472.93L475.87 479.59L471.7 486.07L467.31 492.37L462.71 498.48L457.91 504.38L452.9 510.08L447.7 515.56L442.31 520.83L436.74 525.87L430.99 530.67L425.08 535.24L418.99 539.56L412.75 543.63L406.36 547.43L399.82 550.97L393.14 554.24L386.33 557.23L379.39 559.93L372.33 562.34L365.15 564.45L357.87 566.25L350.48 567.74L342.99 568.91L335.41 569.75L327.74 570.26L320 570.44L312.26 570.26L304.59 569.75L297.01 568.91L289.52 567.74L282.13 566.25L274.85 564.45L267.67 562.34L260.61 559.93L253.67 557.23L246.86 554.24L240.18 550.97L233.64 547.43L227.25 543.63L221.01 539.56L214.92 535.24L209.01 530.67L203.26 525.87L197.69 520.83L192.3 515.56L187.1 510.08L182.09 504.38L177.29 498.48L172.69 492.37L168.3 486.07L164.13 479.59L160.19 472.93L156.48 466.09L153.01 459.08L149.78 451.92L146.79 444.6L144.07 437.14L141.6 429.54L139.4 421.8L137.48 413.93L135.83 405.95L134.47 397.85L133.4 389.65L132.63 381.34L132.17 372.95L132.01 364.46L132.17 355.98L132.63 347.58L133.4 339.27L134.47 331.07L135.83 322.97L137.48 314.99L139.4 307.12L141.6 299.39L144.07 291.78L146.79 284.32L149.78 277L153.01 269.84L156.48 262.83L160.19 255.99L164.13 249.33L168.3 242.85L172.69 236.55L177.29 230.44L182.09 224.54L187.1 218.84L192.3 213.36L197.69 208.09L203.26 203.05L209.01 198.25L214.92 193.68L221.01 189.36L227.25 185.3L233.64 181.49L240.18 177.95L246.86 174.68L253.67 171.69L260.61 168.99L267.67 166.58L274.85 164.47L282.13 162.67L289.52 161.18L297.01 160.01L304.59 159.17L312.26 158.66L320 158.48L327.74 158.66L335.41 159.17L342.99 160.01L350.48 161.18L357.87 162.67L365.15 164.47L372.33 166.58L379.39 168.99L386.33 171.69L393.14 174.68L399.82 177.95L406.36 181.49L412.75 185.3L418.99 189.36L425.08 193.68L430.99 198.25L436.74 203.05L442.31 208.09L447.7 213.36L452.9 218.84L457.91 224.54L462.71 230.44L467.31 236.55L471.7 242.85L475.87 249.33L479.81 255.99L483.52 262.83L486.99 269.84L490.22 277L493.21 284.32L495.93 291.78L498.4 299.39L500.6 307.12L502.52 314.99L504.17 322.97L505.53 331.07L506.6 339.27L507.37 347.58L507.83 355.98L507.99 364.46L507.99 364.46L507.83 372.95Z" id="daWD7z0vHf"></path><path d="M380.57 29.36C394.8 29.36 406.33 40.9 406.33 55.13C406.33 62.74 406.33 59.8 406.33 67.42C406.33 81.65 394.8 93.18 380.57 93.18C351.19 93.18 288.81 93.18 259.43 93.18C245.2 93.18 233.67 81.65 233.67 67.42C233.67 59.8 233.67 62.74 233.67 55.13C233.67 40.9 245.2 29.36 259.43 29.36C288.81 29.36 351.19 29.36 380.57 29.36Z" id="hfPhcQDf1"></path><path d="M275.58 93.18L364.42 93.18L364.42 117.61L275.58 117.61L275.58 93.18Z" id="j1nAxouRMT"></path><path d="M140.34 138.91C148.24 131.79 160.41 132.43 167.53 140.33C170.1 143.19 164.95 137.47 167.53 140.33C174.64 148.23 174 160.4 166.1 167.52C158.4 174.45 149.6 182.38 141.89 189.32C133.99 196.43 121.82 195.79 114.71 187.89C112.13 185.03 117.28 190.75 114.71 187.89C107.59 179.99 108.23 167.82 116.13 160.71C123.83 153.77 132.64 145.84 140.34 138.91Z" id="a2BaDVvFGh"></path><path d="M475.36 161.74C467.5 154.58 466.93 142.41 474.09 134.55C476.69 131.7 471.5 137.39 474.09 134.55C481.26 126.69 493.43 126.12 501.29 133.28C508.95 140.27 517.71 148.24 525.37 155.23C533.23 162.39 533.79 174.56 526.63 182.42C524.04 185.27 529.23 179.57 526.63 182.42C519.47 190.28 507.3 190.84 499.44 183.68C491.78 176.7 483.02 168.72 475.36 161.74Z" id="anM1jTS49"></path></defs><g><g><g><g><use xlink:href="#aPDoKITTH" opacity="1" fill="#666677" fill-opacity="0"></use><g><use xlink:href="#aPDoKITTH" opacity="1" fill-opacity="0" stroke="#666666" stroke-width="9" stroke-opacity="1"></use></g></g><g><use xlink:href="#daWD7z0vHf" opacity="1" fill="#666677" fill-opacity="0"></use><g><use xlink:href="#daWD7z0vHf" opacity="1" fill-opacity="0" stroke="#666666" stroke-width="9" stroke-opacity="1"></use></g></g><g><use xlink:href="#hfPhcQDf1" opacity="1" fill="#666677" fill-opacity="0"></use><g><use xlink:href="#hfPhcQDf1" opacity="1" fill-opacity="0" stroke="#666666" stroke-width="9" stroke-opacity="1"></use></g></g><g><use xlink:href="#j1nAxouRMT" opacity="1" fill="#666666" fill-opacity="1"></use><g><use xlink:href="#j1nAxouRMT" opacity="1" fill-opacity="0" stroke="#666666" stroke-width="3" stroke-opacity="1"></use></g></g><g><use xlink:href="#a2BaDVvFGh" opacity="1" fill="#666677" fill-opacity="0"></use><g><use xlink:href="#a2BaDVvFGh" opacity="1" fill-opacity="0" stroke="#666666" stroke-width="9" stroke-opacity="1"></use></g></g><g><use xlink:href="#anM1jTS49" opacity="1" fill="#666677" fill-opacity="0"></use><g><use xlink:href="#anM1jTS49" opacity="1" fill-opacity="0" stroke="#666666" stroke-width="9" stroke-opacity="1"></use></g></g></g></g></g></svg>