<?xml version="1.0" encoding="UTF-8" standalone="no"?>
<!DOCTYPE svg PUBLIC "-//W3C//DTD SVG 1.1//EN" "http://www.w3.org/Graphics/SVG/1.1/DTD/svg11.dtd">
<svg version="1.1" xmlns="http://www.w3.org/2000/svg" xmlns:xlink="http://www.w3.org/1999/xlink" preserveAspectRatio="xMidYMid meet" viewBox="0 0 640 640" width="640" height="640"><defs><path d="M586.23 372.02C586.23 519.92 466.93 640 320 640C173.07 640 53.77 519.92 53.77 372.02C53.77 224.12 173.07 104.04 320 104.04C466.93 104.04 586.23 224.12 586.23 372.02Z" id="i2hJ7fLN2c"></path><path d="M484.97 15.09C489.23 15.09 492.68 18.55 492.68 22.81C492.68 38.74 492.68 78.8 492.68 94.72C492.68 98.98 489.23 102.44 484.97 102.44C417.44 102.44 222.56 102.44 155.03 102.44C150.77 102.44 147.32 98.98 147.32 94.72C147.32 78.8 147.32 38.74 147.32 22.81C147.32 18.55 150.77 15.09 155.03 15.09C222.56 15.09 417.44 15.09 484.97 15.09Z" id="a12vvN7OPh"></path><path d="M213.87 16.45L224.25 16.45L224.25 101.08L213.87 101.08L213.87 16.45Z" id="c2EJCUQKH"></path><path d="M288.02 16.45L298.4 16.45L298.4 101.08L288.02 101.08L288.02 16.45Z" id="b1ulytKV1D"></path><path d="M362.17 16.45L372.55 16.45L372.55 101.08L362.17 101.08L362.17 16.45Z" id="b2mETOynqC"></path><path d="M434.43 17.82L444.81 17.82L444.81 102.44L434.43 102.44L434.43 17.82Z" id="d1086W6w1"></path></defs><g><g><g><use xlink:href="#i2hJ7fLN2c" opacity="1" fill="#ffffff" fill-opacity="0"></use><g><use xlink:href="#i2hJ7fLN2c" opacity="1" fill-opacity="0" stroke="#606060" stroke-width="9" stroke-opacity="1"></use></g></g><g><use xlink:href="#a12vvN7OPh" opacity="1" fill="#ffffff" fill-opacity="0"></use><g><use xlink:href="#a12vvN7OPh" opacity="1" fill-opacity="0" stroke="#606060" stroke-width="9" stroke-opacity="1"></use></g></g><g><use xlink:href="#c2EJCUQKH" opacity="1" fill="#666666" fill-opacity="1"></use><g><use xlink:href="#c2EJCUQKH" opacity="1" fill-opacity="0" stroke="#020202" stroke-width="0" stroke-opacity="1"></use></g></g><g><use xlink:href="#b1ulytKV1D" opacity="1" fill="#666666" fill-opacity="1"></use><g><use xlink:href="#b1ulytKV1D" opacity="1" fill-opacity="0" stroke="#020202" stroke-width="0" stroke-opacity="1"></use></g></g><g><use xlink:href="#b2mETOynqC" opacity="1" fill="#666666" fill-opacity="1"></use><g><use xlink:href="#b2mETOynqC" opacity="1" fill-opacity="0" stroke="#020202" stroke-width="0" stroke-opacity="1"></use></g></g><g><use xlink:href="#d1086W6w1" opacity="1" fill="#666666" fill-opacity="1"></use><g><use xlink:href="#d1086W6w1" opacity="1" fill-opacity="0" stroke="#020202" stroke-width="0" stroke-opacity="1"></use></g></g></g></g></svg>